<svg xmlns="http://www.w3.org/2000/svg" viewBox="0 0 320 100" fill="none">
  <g transform="translate(10,5) scale(0.82)">
    <circle cx="54" cy="72" r="26" stroke="white" stroke-width="5.5" fill="none"/>
    <path d="M16 26 L16 50 Q16 60 26 60 Q36 60 36 50 L36 26" stroke="white" stroke-width="6.5" stroke-linecap="round" stroke-linejoin="round" fill="none"/>
    <path d="M47 65 Q40 57 47 50 Q55 43 62 50 Q69 57 62 65 Q55 73 47 80 Q40 88 47 94" stroke="white" stroke-width="5.5" stroke-linecap="round" fill="none"/>
    <line x1="70" y1="28" x2="70" y2="70" stroke="white" stroke-width="6.5" stroke-linecap="round"/>
    <line x1="63" y1="28" x2="77" y2="28" stroke="white" stroke-width="4.5" stroke-linecap="round"/>
    <line x1="80" y1="28" x2="80" y2="70" stroke="white" stroke-width="6.5" stroke-linecap="round"/>
    <line x1="80" y1="70" x2="100" y2="70" stroke="white" stroke-width="4.5" stroke-linecap="round"/>
  </g>
  <line x1="105" y1="20" x2="105" y2="80" stroke="white" stroke-width="1" opacity="0.35"/>
  <text x="118" y="44" font-family="Georgia, 'Times New Roman', serif" font-size="22" font-weight="700" fill="white" letter-spacing="0.5">Universidad</text>
  <text x="118" y="68" font-family="Georgia, 'Times New Roman', serif" font-size="22" font-weight="700" fill="white" letter-spacing="0.5">San Ignacio</text>
  <text x="118" y="88" font-family="Georgia, 'Times New Roman', serif" font-size="18" fill="rgba(255,255,255,0.88)" letter-spacing="0.5">de Loyola</text>
</svg>
